<svg id="Layer_1" data-name="Layer 1" xmlns="http://www.w3.org/2000/svg" viewBox="0 0 270.46 228.44"><defs><style>.cls-1{fill:#0047ba;}.cls-2{fill:#002e6d;}.cls-3{fill:#fff;}.cls-4{fill:#ffa400;}</style></defs><path class="cls-1" d="M437.17,181.42a1.9,1.9,0,0,0-1.33.32,2.43,2.43,0,0,0-.86,1.06l3.9.37a2.55,2.55,0,0,0-.53-1.16A1.6,1.6,0,0,0,437.17,181.42Z" transform="translate(-258.79 -2)"/><path class="cls-1" d="M323,102.5l1.34-2.78a20.44,20.44,0,0,1,1.61-3,22.71,22.71,0,0,1,19-10.38c.52,0,1.06,0,1.58.06a22.7,22.7,0,0,1,17.33,10.12c.14-.24.28-.49.43-.73a20.79,20.79,0,0,1,17.69-10c.46,0,.93,0,1.39,0a20.15,20.15,0,0,1,15.79,9.28.21.21,0,0,0,0,.06l1.54,2.33a18.26,18.26,0,0,1,15.88-9.41c.4,0,.81,0,1.21,0a18.36,18.36,0,0,1,6.42,1.63,18.08,18.08,0,0,1,4.93-1.45l12-1.71a63.13,63.13,0,0,1,8.91-.66,42.65,42.65,0,0,1,19.6,4.38,17.18,17.18,0,0,1,11.45-4.47c.47,0,.95,0,1.42.06l.34,0a18.71,18.71,0,0,1,14.41,9.42,18.93,18.93,0,0,1,13.18-6.83,56.39,56.39,0,0,0-35-49.06L392.89,6.08a56.39,56.39,0,0,0-73.2,31l-19.82,49a46.21,46.21,0,0,1,12.58,3A17.16,17.16,0,0,1,323,102.5Zm42.86-36c-.71,1.42-1.95,2.48-2.65,3.71-1.06,2.48-1.6,5-2.48,7.43-.18.53-.53,1.06-.71,1.59A7.37,7.37,0,0,1,358,82.08a3.76,3.76,0,0,1-4.25.36,1.39,1.39,0,0,1-.7-.71,2.06,2.06,0,0,1-.18-1.77,101.65,101.65,0,0,1,4.24-10.08c1.24-2.48,2.83-4.77,5.49-5.84,1.23-.53,3.18-.35,3.53,1.24C366.35,65.81,366,66.17,365.82,66.52Zm35,9.37a1.68,1.68,0,0,1-.53.89,3,3,0,0,1-3,1.24,16.62,16.62,0,0,1-3.71-2.3c-.89-.71-1.44-1.53-2.3-2.3-1-.92-2.13-1.77-3.19-2.66-2.3-2.3-4.6-4.24-5.83-7.25a1.08,1.08,0,0,1,.17-.7c1.6-2.3,3.36.7,4.78,1.76.18.18,3.45,2.28,4.6,3,3.41,2.16,8.13,3.54,9,7.78A3.13,3.13,0,0,1,400.84,75.89Zm-15.39-38.2a7.66,7.66,0,0,1,.88-2.47,9.78,9.78,0,0,1,1.42-1.6,26.22,26.22,0,0,1,2.65-1.94c3.19-1.77,6-3.18,9.2-4.95a5.94,5.94,0,0,1,1.94-.53h.54a1.34,1.34,0,0,1,.88.35,3.38,3.38,0,0,1,.88,1.77c-.53,3-2.83,5-5.48,6.19-3,1.24-6.05,2.13-8.84,4.07a6.11,6.11,0,0,1-.89.53c-.88.53-2.3.7-3-.18A1.86,1.86,0,0,1,385.45,37.69ZM360.69,15.41a1.39,1.39,0,0,1,.35-.71,2.77,2.77,0,0,1,.71-.53,2.5,2.5,0,0,1,1.06-.35h1.42c2.12.35,2.83,2.65,2.83,4.42,0,4.24-.89,8.49-.89,12.73a1.18,1.18,0,0,1-.7.89,2.57,2.57,0,0,1-2-.18,4.16,4.16,0,0,1-1.06-1.41c-1.59-3.72-.89-7.61-1.59-11.5A10.57,10.57,0,0,1,360.69,15.41Zm-4.18,28.53c.41-2,2.74-5.12,6.39-7.1a9.32,9.32,0,0,1,4.48-1A21.91,21.91,0,0,1,376,38c4.14,1.89,8.77,6.3,9.36,10.39.73,5-.7,8.8-4.24,11.37a13.64,13.64,0,0,1-8.24,2.94,16.79,16.79,0,0,1-4.91-.8,10.57,10.57,0,0,1-7.77-9.22c-.27-3.8,1.62-7.41,4.61-8.78a6.9,6.9,0,0,1,2.88-.62A9.35,9.35,0,0,1,372.88,45a2.78,2.78,0,0,1,1.25,1.92,2.09,2.09,0,0,1-.48,1.64,1.36,1.36,0,0,1-1.07.53,3.45,3.45,0,0,1-1.6-.58,5.85,5.85,0,0,0-3.28-1,8.4,8.4,0,0,0-1.09.07c-2.16.28-3.5,2.87-3.34,5a7.35,7.35,0,0,0,5.4,6.4,13.92,13.92,0,0,0,4,.65h0a8.5,8.5,0,0,0,6.51-2.73,8.7,8.7,0,0,0,2.29-6.4c-.41-4.69-6.86-8.43-8.44-9.11a11.62,11.62,0,0,0-4.59-1c-4.33,0-7.54,2.76-8.44,4.72-.78,1.71-1.26,2.59-2.44,2.37a1.17,1.17,0,0,1-.68-.54A4.08,4.08,0,0,1,356.51,43.94Zm-23.59,4.54c.89-3.18,5.31-3.18,8.14-2.12,3.36,1.06,5.84,3.71,9.37,4.42,1.24.18,3,.35,3.36,1.77-1.41,3.36-6,3.18-8.84,2.12a85.6,85.6,0,0,0-9.37-3.54C334.34,50.78,332.39,50.07,332.92,48.48Z" transform="translate(-258.79 -2)"/><path class="cls-1" d="M366.54,186.92a3.39,3.39,0,0,0-.9.24,1.61,1.61,0,0,0-.64.5,1.32,1.32,0,0,0-.23.84,1.2,1.2,0,0,0,.27.79.82.82,0,0,0,.66.33l.52,0,.55-.07a3.71,3.71,0,0,0,.5-.09l.34-.09,0-2.49C367.23,186.86,366.88,186.88,366.54,186.92Z" transform="translate(-258.79 -2)"/><path class="cls-1" d="M421.66,184.31a2.81,2.81,0,0,0,1.95,1.33,2.19,2.19,0,0,0,.89,0c.26-.07.55-.16.87-.28l.95-5.26a3.31,3.31,0,0,0-.85-.54,5.49,5.49,0,0,0-.89-.24,2.82,2.82,0,0,0-1.16,0,2.79,2.79,0,0,0-1,.47,3.12,3.12,0,0,0-.75.86,3.71,3.71,0,0,0-.42,1.2,3.62,3.62,0,0,0,0,1.31A3.33,3.33,0,0,0,421.66,184.31Z" transform="translate(-258.79 -2)"/><path class="cls-1" d="M398.76,178.2a1.62,1.62,0,0,0-1.29-.31,1.94,1.94,0,0,0-1.21.62,2.53,2.53,0,0,0-.6,1.24l3.88-.54A2.39,2.39,0,0,0,398.76,178.2Z" transform="translate(-258.79 -2)"/><path class="cls-1" d="M449.68,184.62a3.54,3.54,0,0,0-.86.37,1.66,1.66,0,0,0-.56.59,1.35,1.35,0,0,0-.11.86,1.25,1.25,0,0,0,.39.74.79.79,0,0,0,.7.23l.51-.1c.18-.05.36-.09.53-.15s.33-.1.48-.15a1.49,1.49,0,0,0,.33-.15l-.39-2.45A8.37,8.37,0,0,0,449.68,184.62Z" transform="translate(-258.79 -2)"/><path class="cls-1" d="M476.07,152.93l-.14.12c-6.3,5.15-14.53,8.49-24.48,9.9L440,164.58a18.5,18.5,0,0,1-2.57.18A18.1,18.1,0,0,1,425.21,160a20.35,20.35,0,0,1-2.89,2.08,19.84,19.84,0,0,1-11.49,2.77,19.46,19.46,0,0,1-15.47-9.17l-2.16-3.26a18.91,18.91,0,0,1-7.95,8.06,18,18,0,0,1-13.88,1.2,17.85,17.85,0,0,1-10.2,3.29c-.41,0-.83,0-1.24,0A18.22,18.22,0,0,1,345.46,156l-8.1-.57a19.16,19.16,0,0,1-5.73,4.85,16.94,16.94,0,0,1-9.33,2,17.46,17.46,0,0,1-7.84-2.5,40.68,40.68,0,0,1-17.2,4.93c-1.43.11-2.9.17-4.36.17-1.79,0-3.58-.09-5.36-.25a56,56,0,0,0,29.76,28.31l82.62,33.42a56.38,56.38,0,0,0,73.2-31l13.16-32.52A18.64,18.64,0,0,1,476.07,152.93ZM352.93,188a3,3,0,0,0,2.12,1.05,5.59,5.59,0,0,0,1.34,0c.49-.08,1.18-.23,2.05-.46l.94,2.53a11,11,0,0,1-1.28.35c-.43.1-.85.17-1.27.23a9.81,9.81,0,0,1-1.17.09,7.36,7.36,0,0,1-1,0,7,7,0,0,1-2.39-.68,5.6,5.6,0,0,1-1.78-1.38,5.37,5.37,0,0,1-1-1.94,5.75,5.75,0,0,1-.21-2.36A6.48,6.48,0,0,1,350,183a5.48,5.48,0,0,1,3.45-2.79,6.32,6.32,0,0,1,2.43-.19,8.34,8.34,0,0,1,2,.54,17.42,17.42,0,0,1,2.31,1.11l-1.4,2.29c-.42-.23-.79-.42-1.1-.56s-.59-.26-.83-.35a4,4,0,0,0-.65-.21l-.56-.09a2.74,2.74,0,0,0-2.2.66,3.38,3.38,0,0,0-1,2.25A3.09,3.09,0,0,0,352.93,188Zm15.49,3.82-.57.11-.79.11-.87.08-.8,0a3.1,3.1,0,0,1-1.42-.3,4.16,4.16,0,0,1-2-2,3.18,3.18,0,0,1-.31-1.3,3.7,3.7,0,0,1,.53-2.13,3.77,3.77,0,0,1,1.39-1.27,5.46,5.46,0,0,1,1.89-.61,14.51,14.51,0,0,1,2-.17v-.48a.87.87,0,0,0-.32-.69,1.25,1.25,0,0,0-.84-.27,6,6,0,0,0-1.64.29,5.4,5.4,0,0,0-1.69.89l-1.25-2.41a8.1,8.1,0,0,1,2.53-1.06,12,12,0,0,1,2.36-.26,5.51,5.51,0,0,1,1.24.13,3.62,3.62,0,0,1,1.24.51,3,3,0,0,1,1,1,3.28,3.28,0,0,1,.41,1.66l.11,8.83Zm49.8-10.43a6.35,6.35,0,0,1,.85-2.28,5.94,5.94,0,0,1,1.52-1.63,5.51,5.51,0,0,1,2-.87,6.14,6.14,0,0,1,2.38,0,5.68,5.68,0,0,1,1.83.61l.87-4.8,3.13-.33-3.11,17.28-1.9-1.16-1.44.1a5.56,5.56,0,0,1-1.44-.08,5.86,5.86,0,0,1-2.19-.85,6,6,0,0,1-1.61-1.56,5.83,5.83,0,0,1-.92-4.41Zm-3-12.2a1.86,1.86,0,1,1-1.86,1.86A1.86,1.86,0,0,1,415.2,169.19Zm-1.73,6.5,3.13-.94-1.2,12.1-3-.29Zm-20.84,3.74a5.42,5.42,0,0,1,.87-2,5,5,0,0,1,1.58-1.41,6,6,0,0,1,2.2-.74,5,5,0,0,1,1.84.11,4.55,4.55,0,0,1,1.79.91,6.12,6.12,0,0,1,1.47,1.86,8.86,8.86,0,0,1,.86,2.9l-7.44,1a2.13,2.13,0,0,0,.34,1,2.44,2.44,0,0,0,.72.71,3.06,3.06,0,0,0,1,.4,4.07,4.07,0,0,0,1.21,0,3.76,3.76,0,0,0,1.51-.56,6.91,6.91,0,0,0,1.32-1.21l1.62,2.1a9.34,9.34,0,0,1-1.92,1.54,6.54,6.54,0,0,1-4.85.71,5.34,5.34,0,0,1-2-1,5.6,5.6,0,0,1-1.45-1.71,6.6,6.6,0,0,1-.75-2.32A6.51,6.51,0,0,1,392.63,179.43Zm-11.65,3a5.83,5.83,0,0,1,.76-2.14,5.92,5.92,0,0,1,1.56-1.64,6.53,6.53,0,0,1,2.23-1,7.56,7.56,0,0,1,2-.15,17.31,17.31,0,0,1,2.54.28l-.55,2.62c-.48-.08-.89-.13-1.22-.16s-.64,0-.91,0a4.79,4.79,0,0,0-.68,0,3.45,3.45,0,0,0-.56.1,2.7,2.7,0,0,0-1.85,1.36,3.38,3.38,0,0,0-.24,2.46,3.11,3.11,0,0,0,1.33,2,3,3,0,0,0,2.36.29A5.3,5.3,0,0,0,389,186a15.89,15.89,0,0,0,1.78-1.12l1.73,2.08a12.23,12.23,0,0,1-1.08.76c-.38.23-.75.44-1.13.64a11.59,11.59,0,0,1-1.06.47,7.44,7.44,0,0,1-.92.3,7,7,0,0,1-2.48.16,5.76,5.76,0,0,1-2.14-.71,5.49,5.49,0,0,1-1.64-1.48,6,6,0,0,1-1-2.16A6.56,6.56,0,0,1,381,182.46Zm-5.43-8.09,1.9,13.17c.07.49.22.79.43.88a1.07,1.07,0,0,0,.65.11,2,2,0,0,0,.81-.35,7,7,0,0,0,.79-.65l.17,2.95a1.83,1.83,0,0,1-.73.45,5,5,0,0,1-.92.24,4,4,0,0,1-1.24,0,3.72,3.72,0,0,1-1.27-.45,3.39,3.39,0,0,1-1.05-.91,2.78,2.78,0,0,1-.57-1.38l-1.82-12.66Zm64.7,24.88a7.53,7.53,0,0,1-4,1.07,43.3,43.3,0,0,1-15.45-2.76c-3.78-1.45-7.5-3.09-11.6-3.3-11.82-.61-22.71,5.37-34.5,5.41-1.11,0-1.21-.71-.34-1.27a7.56,7.56,0,0,1,4-1.07c5.43,0,10.59-1.71,15.8-3,6.05-1.53,12.43-2.8,18.7-2.38,4.26.29,8,1.67,12,3.19A41.56,41.56,0,0,0,439.91,198C441,198,441.13,198.69,440.25,199.25Zm1.8-13.39-7.48-.71a2.09,2.09,0,0,0,.1,1,2.31,2.31,0,0,0,.54.86,2.86,2.86,0,0,0,.9.61,3.72,3.72,0,0,0,1.18.3,3.53,3.53,0,0,0,1.59-.19,6.86,6.86,0,0,0,1.56-.87l1.09,2.42a9.07,9.07,0,0,1-2.22,1.05,6.21,6.21,0,0,1-2.51.25,6.46,6.46,0,0,1-2.38-.67,5.47,5.47,0,0,1-1.73-1.42,5.57,5.57,0,0,1-1-2,6.47,6.47,0,0,1-.19-2.43,6.74,6.74,0,0,1,.62-2.29,5.39,5.39,0,0,1,1.3-1.72,5,5,0,0,1,1.87-1,5.85,5.85,0,0,1,2.31-.21,4.88,4.88,0,0,1,1.76.53,4.47,4.47,0,0,1,1.53,1.3,6,6,0,0,1,1,2.15A8.55,8.55,0,0,1,442.05,185.86Zm10.2,3.34c-.13.05-.32.12-.56.19s-.49.15-.77.23l-.84.2-.79.15a3.21,3.21,0,0,1-1.45-.1,4.15,4.15,0,0,1-1.27-.66,4.5,4.5,0,0,1-1-1,3.38,3.38,0,0,1-.49-1.26,3.5,3.5,0,0,1,1.42-3.63,5.49,5.49,0,0,1,1.78-.88,15.27,15.27,0,0,1,2-.45l-.07-.48a.9.9,0,0,0-.42-.64,1.28,1.28,0,0,0-.87-.14,5.83,5.83,0,0,0-3.13,1.64l-1.57-2.2a7.65,7.65,0,0,1,2.35-1.41,12.91,12.91,0,0,1,2.3-.61,5.57,5.57,0,0,1,1.24,0,3.61,3.61,0,0,1,1.29.33,2.91,2.91,0,0,1,1.11.88,3.31,3.31,0,0,1,.64,1.59l1.37,8.72Zm10.44-2a4.44,4.44,0,0,1-.9.32,4.07,4.07,0,0,1-1.23.08,4,4,0,0,1-1.31-.34,3.56,3.56,0,0,1-1.13-.81,2.86,2.86,0,0,1-.68-1.33l-2.95-12.44,2.72-1.62,3.07,13q.17.72.51.84a1.21,1.21,0,0,0,.65.05,2.15,2.15,0,0,0,.78-.42,6.12,6.12,0,0,0,.72-.72l.44,2.92A1.73,1.73,0,0,1,462.69,187.19Z" transform="translate(-258.79 -2)"/><path class="cls-2" d="M515.21,127a3.25,3.25,0,0,0,0,6.5,3.12,3.12,0,0,0,3.1-3.22A3.15,3.15,0,0,0,515.21,127Zm1,5.38a3.51,3.51,0,0,1-.32-1c-.08-.44-.32-.64-.84-.64h-.45v1.63h-.94v-4.06a7.67,7.67,0,0,1,1.56-.13,2.55,2.55,0,0,1,1.41.3,1.11,1.11,0,0,1,.4.9,1,1,0,0,1-.84.93v.05a1.21,1.21,0,0,1,.74,1,2.91,2.91,0,0,0,.3,1Z" transform="translate(-258.79 -2)"/><path class="cls-2" d="M525.68,95.8a17.16,17.16,0,0,0-12.47-7.22,14.66,14.66,0,0,0-1.48-.07c-.4,0-.8,0-1.2,0a18.93,18.93,0,0,0-13.18,6.83A18.71,18.71,0,0,0,482.94,86l-.34,0c-.47,0-1-.06-1.42-.06a17.18,17.18,0,0,0-11.45,4.47A42.65,42.65,0,0,0,450.13,86a63.13,63.13,0,0,0-8.91.66l-12,1.71a18.08,18.08,0,0,0-4.93,1.45,18.36,18.36,0,0,0-6.42-1.63c-.4,0-.81,0-1.21,0a18.26,18.26,0,0,0-15.88,9.41L399.2,95.2a.21.21,0,0,1,0-.06,20.15,20.15,0,0,0-15.79-9.28c-.46,0-.93,0-1.39,0a20.79,20.79,0,0,0-17.69,10c-.15.24-.29.49-.43.73a22.7,22.7,0,0,0-17.33-10.12c-.52,0-1.06-.06-1.58-.06a22.71,22.71,0,0,0-19,10.38,20.44,20.44,0,0,0-1.61,3L323,102.5a17.16,17.16,0,0,0-10.51-13.42,46.21,46.21,0,0,0-12.58-3c-1.8-.18-3.64-.28-5.52-.28-1.65,0-3.35.06-5.07.2-14,1.08-21.41,7.4-25.18,12.51a27.93,27.93,0,0,0-5.22,19A24,24,0,0,0,265,132.19a17.38,17.38,0,0,0-1.59,1.83,18.51,18.51,0,0,0-1.94,3.28c-.25.57-.45,1.08-.63,1.6a1,1,0,0,1,0,.16,18.35,18.35,0,0,0-.73,6.79,17,17,0,0,0,9.81,14.27,55.35,55.35,0,0,0,17.67,4.51c1.78.16,3.57.25,5.36.25,1.46,0,2.93-.06,4.36-.17a40.68,40.68,0,0,0,17.2-4.93,17.46,17.46,0,0,0,7.84,2.5,16.94,16.94,0,0,0,9.33-2,19.16,19.16,0,0,0,5.73-4.85l8.1.57A18.22,18.22,0,0,0,359.93,165c.41,0,.83,0,1.24,0a17.85,17.85,0,0,0,10.2-3.29,18,18,0,0,0,13.88-1.2,18.91,18.91,0,0,0,7.95-8.06l2.16,3.26a19.46,19.46,0,0,0,15.47,9.17,19.84,19.84,0,0,0,11.49-2.77,20.35,20.35,0,0,0,2.89-2.08,18.1,18.1,0,0,0,12.25,4.74,18.5,18.5,0,0,0,2.57-.18L451.45,163c9.95-1.41,18.18-4.75,24.48-9.9l.14-.12a18.64,18.64,0,0,0,10.21,9.87,17.87,17.87,0,0,0,5,1.18c.52,0,1.05.06,1.58.06h0a18.27,18.27,0,0,0,8.41-2.06,18.93,18.93,0,0,0,10-15.28l.76-8.77a8.56,8.56,0,0,0,2.74.46,8.46,8.46,0,0,0,8.46-8.43,8.35,8.35,0,0,0-2.1-5.52l5-7.4c.14-.22.28-.44.41-.67a20.6,20.6,0,0,0,2.56-7.85A19.06,19.06,0,0,0,525.68,95.8Zm-10.47,38.56a4.1,4.1,0,1,1,0-8.19,4.1,4.1,0,1,1,0,8.19Zm8-31.8a10.85,10.85,0,0,1-1.36,3.93l-15.51,23-1,11.28a9.3,9.3,0,0,1-4.89,7.54,8.44,8.44,0,0,1-4.68.94,9,9,0,0,1-8-10l1-11-6.38-14.34c0,.22.08.44.11.66a33.21,33.21,0,0,1-.23,11.34,24.75,24.75,0,0,1-8.79,14.58c-4.75,3.88-11.3,6.62-19.73,7.82l-11.42,1.62a8.82,8.82,0,0,1-9.85-7.79l-4.2-29.55-1.38,20.62-.43,6.43a11.64,11.64,0,0,1-3,7.1,10.76,10.76,0,0,1-2.44,2,10.11,10.11,0,0,1-5.9,1.43,9.87,9.87,0,0,1-8-4.84l-16.54-24.93-.57,8.6-.69,10.24a9.38,9.38,0,0,1-.13,1.08,9.25,9.25,0,0,1-4.74,6.56,8.47,8.47,0,0,1-4.45.94,8.57,8.57,0,0,1-6.79-4.24,10.21,10.21,0,0,1-3.13,4.71,9.44,9.44,0,0,1-1.5,1,7.77,7.77,0,0,1-4.27.94,8.68,8.68,0,0,1-7.75-6.31l-.63-2.2-20.06-1.43a17.42,17.42,0,0,1-2.26,3.89,9.47,9.47,0,0,1-2.89,2.52,7.21,7.21,0,0,1-4,.86,8.56,8.56,0,0,1-7.45-6.29,18.56,18.56,0,0,1-3.8,3.7c-3.82,2.79-9,4.54-15.23,5a47.9,47.9,0,0,1-22.65-3.76,7.39,7.39,0,0,1-4.16-6.21,8.76,8.76,0,0,1,.3-3.13,6.22,6.22,0,0,1,.29-.71,7.68,7.68,0,0,1,.85-1.44,7.18,7.18,0,0,1,5.12-2.9,6.91,6.91,0,0,1,2.93.55,37.47,37.47,0,0,0,17.06,3.15c.4,0,.77-.07,1.12-.12,2.89-.44,4-1.6,3.85-3.28-.17-2.22-2-3.11-8.35-3.91-12.41-1.7-23.42-4.46-24.35-16.53a18.28,18.28,0,0,1,3.36-12.51c3.48-4.72,9.57-8,18.14-8.61,7.46-.58,13.63.32,18.88,2.41a7.62,7.62,0,0,1,4.56,6.44,8.52,8.52,0,0,1-.24,2.86,7.68,7.68,0,0,1-4.18,4.84,6.74,6.74,0,0,1-2.21.57c-5.13.39-11-3.11-16.31-2.7-3.11.24-4.41,1.64-4.28,3.35a3.54,3.54,0,0,0,.07.47c.4,1.69,2.33,2.71,8,3.38a68.61,68.61,0,0,1,9.64,1.71c6.47,1.7,11.32,4.49,13.62,9.29a14.86,14.86,0,0,1,.78,2.06,16.08,16.08,0,0,1,.56,2.89l14.22-29.53a12.73,12.73,0,0,1,12.74-7.69,13.27,13.27,0,0,1,11.68,9.43l4.57,14.48,3.42,10.87,2.91,9.22,2.23-33.36a12.44,12.44,0,0,1,1.84-5.78,11.14,11.14,0,0,1,10.23-5.37,10.62,10.62,0,0,1,8.42,5l8.83,13.35,3.58,5.4,3.2,4.83,1.19-17.72a9.53,9.53,0,0,1,1.1-3.9,8.49,8.49,0,0,1,15.18,0,8.48,8.48,0,0,1,6.32-4.53l12-1.72c12.73-1.81,22.23.84,28.38,6.78a23.8,23.8,0,0,1,2.22,2.48,8.31,8.31,0,0,1-.09-1.76A9.41,9.41,0,0,1,477.86,95a8.05,8.05,0,0,1,7.6-4.53l.31,0a9.27,9.27,0,0,1,7.42,5.64l5,12.9.4,1,.57,1.47L507.43,98l.36-.6a9.26,9.26,0,0,1,8.28-4.29C520.65,93.46,523.61,98.11,523.23,102.56Z" transform="translate(-258.79 -2)"/><path class="cls-2" d="M515.11,128.85a2.63,2.63,0,0,0-.52.05v1.17H515c.52,0,.94-.18.94-.6S515.71,128.85,515.11,128.85Z" transform="translate(-258.79 -2)"/><path class="cls-2" d="M448.93,107l-3.55.51.45,3.18.81,5.69L449,132.72l3.55-.51a23.8,23.8,0,0,0,4.28-1,15.93,15.93,0,0,0,3.2-1.45c3.94-2.39,5.83-6.37,5-12.17C463.74,108.69,457.73,105.73,448.93,107Z" transform="translate(-258.79 -2)"/><polygon class="cls-2" points="86.23 116.65 82.49 125.2 82.64 125.73 88.92 126.17 93.86 126.53 89.17 109.93 86.23 116.65"/><path class="cls-3" d="M516.07,93.07a9.26,9.26,0,0,0-8.28,4.29l-.36.6-8.29,13.55-.57-1.47-.4-1-5-12.9a9.27,9.27,0,0,0-7.42-5.64l-.31,0a8.05,8.05,0,0,0-7.6,4.53,9.41,9.41,0,0,0-1.08,3.59,8.31,8.31,0,0,0,.09,1.76,23.8,23.8,0,0,0-2.22-2.48c-6.15-5.94-15.65-8.59-28.38-6.78l-12,1.72a8.48,8.48,0,0,0-6.32,4.53,8.49,8.49,0,0,0-15.18,0,9.53,9.53,0,0,0-1.1,3.9L410.44,119l-3.2-4.83-3.58-5.4L394.83,95.4a10.62,10.62,0,0,0-8.42-5,11.14,11.14,0,0,0-10.23,5.37,12.44,12.44,0,0,0-1.84,5.78l-2.23,33.36-2.91-9.22-3.42-10.87-4.57-14.48a13.27,13.27,0,0,0-11.68-9.43,12.73,12.73,0,0,0-12.74,7.69L322.57,128.1a16.08,16.08,0,0,0-.56-2.89,14.86,14.86,0,0,0-.78-2.06c-2.3-4.8-7.15-7.59-13.62-9.29a68.61,68.61,0,0,0-9.64-1.71c-5.64-.67-7.57-1.69-8-3.38a3.54,3.54,0,0,1-.07-.47c-.13-1.71,1.17-3.11,4.28-3.35,5.28-.41,11.18,3.09,16.31,2.7a6.74,6.74,0,0,0,2.21-.57,7.68,7.68,0,0,0,4.18-4.84,8.52,8.52,0,0,0,.24-2.86,7.62,7.62,0,0,0-4.56-6.44c-5.25-2.09-11.42-3-18.88-2.41-8.57.66-14.66,3.89-18.14,8.61a18.28,18.28,0,0,0-3.36,12.51c.93,12.07,11.94,14.83,24.35,16.53,6.32.8,8.18,1.69,8.35,3.91.14,1.68-1,2.84-3.85,3.28-.35,0-.72.09-1.12.12a37.47,37.47,0,0,1-17.06-3.15,6.91,6.91,0,0,0-2.93-.55,7.18,7.18,0,0,0-5.12,2.9,7.68,7.68,0,0,0-.85,1.44,6.22,6.22,0,0,0-.29.71,8.76,8.76,0,0,0-.3,3.13,7.39,7.39,0,0,0,4.16,6.21,47.9,47.9,0,0,0,22.65,3.76c6.23-.49,11.41-2.24,15.23-5a18.56,18.56,0,0,0,3.8-3.7,8.56,8.56,0,0,0,7.45,6.29,7.21,7.21,0,0,0,4-.86,9.47,9.47,0,0,0,2.89-2.52,17.42,17.42,0,0,0,2.26-3.89l20.06,1.43.63,2.2a8.68,8.68,0,0,0,7.75,6.31,7.77,7.77,0,0,0,4.27-.94,9.44,9.44,0,0,0,1.5-1,10.21,10.21,0,0,0,3.13-4.71,8.57,8.57,0,0,0,6.79,4.24,8.47,8.47,0,0,0,4.45-.94,9.25,9.25,0,0,0,4.74-6.56,9.38,9.38,0,0,0,.13-1.08l.69-10.24.57-8.6,16.54,24.93a9.87,9.87,0,0,0,8,4.84,10.11,10.11,0,0,0,5.9-1.43,10.76,10.76,0,0,0,2.44-2,11.64,11.64,0,0,0,3-7.1l.43-6.43,1.38-20.62,4.2,29.55a8.82,8.82,0,0,0,9.85,7.79l11.42-1.62c8.43-1.2,15-3.94,19.73-7.82a24.75,24.75,0,0,0,8.79-14.58,33.21,33.21,0,0,0,.23-11.34c0-.22-.07-.44-.11-.66l6.38,14.34-1,11a9,9,0,0,0,8,10,8.44,8.44,0,0,0,4.68-.94,9.3,9.3,0,0,0,4.89-7.54l1-11.28,15.51-23a10.85,10.85,0,0,0,1.36-3.93C523.61,98.11,520.65,93.46,516.07,93.07Zm-168.36,35.1-6.28-.44-.15-.54,3.74-8.54,2.94-6.72,4.68,16.59ZM460,129.78a15.93,15.93,0,0,1-3.2,1.45,23.8,23.8,0,0,1-4.28,1l-3.55.51-2.33-16.36-.81-5.69-.45-3.18,3.55-.51c8.8-1.25,14.81,1.71,16.08,10.63C465.83,123.41,463.94,127.39,460,129.78Z" transform="translate(-258.79 -2)"/><path class="cls-3" d="M515.21,126.17a4.1,4.1,0,1,0,4.17,4.07A4.11,4.11,0,0,0,515.21,126.17Zm0,7.32a3.25,3.25,0,1,1,3.1-3.22A3.15,3.15,0,0,1,515.24,133.49Z" transform="translate(-258.79 -2)"/><path class="cls-3" d="M516.16,130.36v-.05a1,1,0,0,0,.84-.93,1.11,1.11,0,0,0-.4-.9,2.55,2.55,0,0,0-1.41-.3,7.67,7.67,0,0,0-1.56.13v4.06h.94v-1.63H515c.52,0,.76.2.84.64a3.51,3.51,0,0,0,.32,1h1a2.91,2.91,0,0,1-.3-1A1.21,1.21,0,0,0,516.16,130.36Zm-1.12-.29h-.45V128.9a2.63,2.63,0,0,1,.52-.05c.6,0,.87.25.87.62S515.56,130.07,515,130.07Z" transform="translate(-258.79 -2)"/><path class="cls-3" d="M439.91,198a41.56,41.56,0,0,1-15.08-2.87c-3.94-1.52-7.7-2.9-12-3.19-6.27-.42-12.65.85-18.7,2.38-5.21,1.32-10.37,3-15.8,3a7.56,7.56,0,0,0-4,1.07c-.87.56-.77,1.27.34,1.27,11.79,0,22.68-6,34.5-5.41,4.1.21,7.82,1.85,11.6,3.3a43.3,43.3,0,0,0,15.45,2.76,7.53,7.53,0,0,0,4-1.07C441.13,198.69,441,198,439.91,198Z" transform="translate(-258.79 -2)"/><path class="cls-3" d="M353.39,183.4a2.74,2.74,0,0,1,2.2-.66l.56.09a4,4,0,0,1,.65.21c.24.09.52.21.83.35s.68.33,1.1.56l1.4-2.29a17.42,17.42,0,0,0-2.31-1.11,8.34,8.34,0,0,0-2-.54,6.32,6.32,0,0,0-2.43.19A5.48,5.48,0,0,0,350,183a6.48,6.48,0,0,0-.7,2.38,5.75,5.75,0,0,0,.21,2.36,5.37,5.37,0,0,0,1,1.94,5.6,5.6,0,0,0,1.78,1.38,7,7,0,0,0,2.39.68,7.36,7.36,0,0,0,1,0,9.81,9.81,0,0,0,1.17-.09c.42-.06.84-.13,1.27-.23a11,11,0,0,0,1.28-.35l-.94-2.53c-.87.23-1.56.38-2.05.46a5.59,5.59,0,0,1-1.34,0,3,3,0,0,1-2.12-1.05,3.09,3.09,0,0,1-.58-2.35A3.38,3.38,0,0,1,353.39,183.4Z" transform="translate(-258.79 -2)"/><path class="cls-3" d="M370.13,182a3,3,0,0,0-1-1,3.62,3.62,0,0,0-1.24-.51,5.51,5.51,0,0,0-1.24-.13,12,12,0,0,0-2.36.26,8.1,8.1,0,0,0-2.53,1.06l1.25,2.41a5.4,5.4,0,0,1,1.69-.89,6,6,0,0,1,1.64-.29,1.25,1.25,0,0,1,.84.27.87.87,0,0,1,.32.69v.48a14.51,14.51,0,0,0-2,.17,5.46,5.46,0,0,0-1.89.61,3.77,3.77,0,0,0-1.39,1.27,3.7,3.7,0,0,0-.53,2.13,3.18,3.18,0,0,0,.31,1.3,4.16,4.16,0,0,0,2,2,3.1,3.1,0,0,0,1.42.3l.8,0,.87-.08.79-.11.57-.11,2.23.71-.11-8.83A3.28,3.28,0,0,0,370.13,182Zm-2.86,7.39a3.71,3.71,0,0,1-.5.09l-.55.07-.52,0a.82.82,0,0,1-.66-.33,1.2,1.2,0,0,1-.27-.79,1.32,1.32,0,0,1,.23-.84,1.61,1.61,0,0,1,.64-.5,3.39,3.39,0,0,1,.9-.24c.34,0,.69-.06,1-.07l0,2.49Z" transform="translate(-258.79 -2)"/><path class="cls-3" d="M375.09,189.77a3.39,3.39,0,0,0,1.05.91,3.72,3.72,0,0,0,1.27.45,4,4,0,0,0,1.24,0,5,5,0,0,0,.92-.24,1.83,1.83,0,0,0,.73-.45l-.17-2.95a7,7,0,0,1-.79.65,2,2,0,0,1-.81.35,1.07,1.07,0,0,1-.65-.11c-.21-.09-.36-.39-.43-.88l-1.9-13.17-2.85,1.36,1.82,12.66A2.78,2.78,0,0,0,375.09,189.77Z" transform="translate(-258.79 -2)"/><path class="cls-3" d="M382.09,187.1a5.49,5.49,0,0,0,1.64,1.48,5.76,5.76,0,0,0,2.14.71,7,7,0,0,0,2.48-.16,7.44,7.44,0,0,0,.92-.3,11.59,11.59,0,0,0,1.06-.47c.38-.2.75-.41,1.13-.64a12.23,12.23,0,0,0,1.08-.76l-1.73-2.08A15.89,15.89,0,0,1,389,186a5.3,5.3,0,0,1-1.24.49,3,3,0,0,1-2.36-.29,3.11,3.11,0,0,1-1.33-2,3.38,3.38,0,0,1,.24-2.46,2.7,2.7,0,0,1,1.85-1.36,3.45,3.45,0,0,1,.56-.1,4.79,4.79,0,0,1,.68,0c.27,0,.57,0,.91,0s.74.08,1.22.16l.55-2.62a17.31,17.31,0,0,0-2.54-.28,7.56,7.56,0,0,0-2,.15,6.53,6.53,0,0,0-2.23,1,5.92,5.92,0,0,0-1.56,1.64,5.83,5.83,0,0,0-.76,2.14,6.56,6.56,0,0,0,.13,2.48A6,6,0,0,0,382.09,187.1Z" transform="translate(-258.79 -2)"/><path class="cls-3" d="M393.3,184.13a5.6,5.6,0,0,0,1.45,1.71,5.34,5.34,0,0,0,2,1,6.54,6.54,0,0,0,4.85-.71,9.34,9.34,0,0,0,1.92-1.54l-1.62-2.1a6.91,6.91,0,0,1-1.32,1.21,3.76,3.76,0,0,1-1.51.56,4.07,4.07,0,0,1-1.21,0,3.06,3.06,0,0,1-1-.4,2.44,2.44,0,0,1-.72-.71,2.13,2.13,0,0,1-.34-1l7.44-1a8.86,8.86,0,0,0-.86-2.9,6.12,6.12,0,0,0-1.47-1.86,4.55,4.55,0,0,0-1.79-.91,5,5,0,0,0-1.84-.11,6,6,0,0,0-2.2.74,5,5,0,0,0-1.58,1.41,5.42,5.42,0,0,0-.87,2,6.51,6.51,0,0,0-.08,2.38A6.6,6.6,0,0,0,393.3,184.13Zm3-5.62a1.94,1.94,0,0,1,1.21-.62,1.62,1.62,0,0,1,1.29.31,2.39,2.39,0,0,1,.78,1l-3.88.54A2.53,2.53,0,0,1,396.26,178.51Z" transform="translate(-258.79 -2)"/><polygon class="cls-3" points="157.81 172.75 154.69 173.69 153.61 184.56 156.62 184.86 157.81 172.75"/><path class="cls-3" d="M415.2,172.91a1.86,1.86,0,1,0-1.86-1.86A1.87,1.87,0,0,0,415.2,172.91Z" transform="translate(-258.79 -2)"/><path class="cls-3" d="M419.14,185.8a6,6,0,0,0,1.61,1.56,5.86,5.86,0,0,0,2.19.85,5.56,5.56,0,0,0,1.44.08l1.44-.1,1.9,1.16,3.11-17.28-3.13.33-.87,4.8a5.68,5.68,0,0,0-1.83-.61,6.14,6.14,0,0,0-2.38,0,5.51,5.51,0,0,0-2,.87,5.94,5.94,0,0,0-1.52,1.63,6.35,6.35,0,0,0-.85,2.28,5.83,5.83,0,0,0,.92,4.41Zm2.11-3.94a3.71,3.71,0,0,1,.42-1.2,3.12,3.12,0,0,1,.75-.86,2.79,2.79,0,0,1,1-.47,2.82,2.82,0,0,1,1.16,0,5.49,5.49,0,0,1,.89.24,3.31,3.31,0,0,1,.85.54l-.95,5.26c-.32.12-.61.21-.87.28a2.19,2.19,0,0,1-.89,0,2.81,2.81,0,0,1-1.95-1.33,3.33,3.33,0,0,1-.43-1.14A3.62,3.62,0,0,1,421.25,181.86Z" transform="translate(-258.79 -2)"/><path class="cls-3" d="M440.87,180.69a4.47,4.47,0,0,0-1.53-1.3,4.88,4.88,0,0,0-1.76-.53,5.85,5.85,0,0,0-2.31.21,5,5,0,0,0-1.87,1,5.39,5.39,0,0,0-1.3,1.72,6.74,6.74,0,0,0-.62,2.29,6.47,6.47,0,0,0,.19,2.43,5.57,5.57,0,0,0,1,2,5.47,5.47,0,0,0,1.73,1.42,6.46,6.46,0,0,0,2.38.67,6.21,6.21,0,0,0,2.51-.25,9.07,9.07,0,0,0,2.22-1.05l-1.09-2.42a6.86,6.86,0,0,1-1.56.87,3.53,3.53,0,0,1-1.59.19,3.72,3.72,0,0,1-1.18-.3,2.86,2.86,0,0,1-.9-.61,2.31,2.31,0,0,1-.54-.86,2.09,2.09,0,0,1-.1-1l7.48.71a8.55,8.55,0,0,0-.18-3A6,6,0,0,0,440.87,180.69ZM435,182.8a2.43,2.43,0,0,1,.86-1.06,1.9,1.9,0,0,1,1.33-.32,1.6,1.6,0,0,1,1.18.59,2.55,2.55,0,0,1,.53,1.16Z" transform="translate(-258.79 -2)"/><path class="cls-3" d="M452.54,179.28a2.91,2.91,0,0,0-1.11-.88,3.61,3.61,0,0,0-1.29-.33,5.57,5.57,0,0,0-1.24,0,12.91,12.91,0,0,0-2.3.61,7.65,7.65,0,0,0-2.35,1.41l1.57,2.2a5.83,5.83,0,0,1,3.13-1.64,1.28,1.28,0,0,1,.87.14.9.9,0,0,1,.42.64l.07.48a15.27,15.27,0,0,0-2,.45,5.49,5.49,0,0,0-1.78.88,3.5,3.5,0,0,0-1.42,3.63,3.38,3.38,0,0,0,.49,1.26,4.5,4.5,0,0,0,1,1,4.15,4.15,0,0,0,1.27.66,3.21,3.21,0,0,0,1.45.1l.79-.15.84-.2c.28-.08.54-.15.77-.23s.43-.14.56-.19l2.3.39-1.37-8.72A3.31,3.31,0,0,0,452.54,179.28ZM450.76,187c-.15.05-.31.11-.48.15s-.35.1-.53.15l-.51.1a.79.79,0,0,1-.7-.23,1.25,1.25,0,0,1-.39-.74,1.35,1.35,0,0,1,.11-.86,1.66,1.66,0,0,1,.56-.59,3.54,3.54,0,0,1,.86-.37,8.37,8.37,0,0,1,1-.21l.39,2.45A1.49,1.49,0,0,1,450.76,187Z" transform="translate(-258.79 -2)"/><path class="cls-3" d="M462.22,184.48a2.15,2.15,0,0,1-.78.42,1.21,1.21,0,0,1-.65-.05q-.35-.12-.51-.84l-3.07-13-2.72,1.62,2.95,12.44a2.86,2.86,0,0,0,.68,1.33,3.56,3.56,0,0,0,1.13.81,4,4,0,0,0,1.31.34,4.07,4.07,0,0,0,1.23-.08,4.44,4.44,0,0,0,.9-.32,1.73,1.73,0,0,0,.69-.51l-.44-2.92A6.12,6.12,0,0,1,462.22,184.48Z" transform="translate(-258.79 -2)"/><path class="cls-4" d="M357.59,47.51c1.18.22,1.66-.66,2.44-2.37.9-2,4.11-4.72,8.44-4.72a11.62,11.62,0,0,1,4.59,1c1.58.68,8,4.42,8.44,9.11a8.7,8.7,0,0,1-2.29,6.4,8.5,8.5,0,0,1-6.51,2.73h0a13.92,13.92,0,0,1-4-.65,7.35,7.35,0,0,1-5.4-6.4c-.16-2.16,1.18-4.75,3.34-5a8.4,8.4,0,0,1,1.09-.07,5.85,5.85,0,0,1,3.28,1,3.45,3.45,0,0,0,1.6.58,1.36,1.36,0,0,0,1.07-.53,2.09,2.09,0,0,0,.48-1.64A2.78,2.78,0,0,0,372.88,45a9.35,9.35,0,0,0-5.15-1.69,6.9,6.9,0,0,0-2.88.62c-3,1.37-4.88,5-4.61,8.78A10.57,10.57,0,0,0,368,61.91a16.79,16.79,0,0,0,4.91.8,13.64,13.64,0,0,0,8.24-2.94c3.54-2.57,5-6.39,4.24-11.37-.59-4.09-5.22-8.5-9.36-10.39a21.91,21.91,0,0,0-8.66-2.2,9.32,9.32,0,0,0-4.48,1c-3.65,2-6,5.07-6.39,7.1a4.08,4.08,0,0,0,.4,3A1.17,1.17,0,0,0,357.59,47.51Z" transform="translate(-258.79 -2)"/><path class="cls-4" d="M362.46,30.27a4.16,4.16,0,0,0,1.06,1.41,2.57,2.57,0,0,0,2,.18,1.18,1.18,0,0,0,.7-.89c0-4.24.89-8.49.89-12.73,0-1.77-.71-4.07-2.83-4.42h-1.42a2.5,2.5,0,0,0-1.06.35,2.77,2.77,0,0,0-.71.53,1.39,1.39,0,0,0-.35.71,10.57,10.57,0,0,0,.18,3.36C361.57,22.66,360.87,26.55,362.46,30.27Z" transform="translate(-258.79 -2)"/><path class="cls-4" d="M388.63,39.11a6.11,6.11,0,0,0,.89-.53c2.79-1.94,5.83-2.83,8.84-4.07,2.65-1.24,4.95-3.18,5.48-6.19a3.38,3.38,0,0,0-.88-1.77,1.34,1.34,0,0,0-.88-.35h-.54a5.94,5.94,0,0,0-1.94.53c-3.18,1.77-6,3.18-9.2,4.95a26.22,26.22,0,0,0-2.65,1.94,9.78,9.78,0,0,0-1.42,1.6,7.66,7.66,0,0,0-.88,2.47,1.86,1.86,0,0,0,.18,1.24C386.33,39.81,387.75,39.64,388.63,39.11Z" transform="translate(-258.79 -2)"/><path class="cls-4" d="M335.58,51.13A85.6,85.6,0,0,1,345,54.67c2.83,1.06,7.43,1.24,8.84-2.12-.35-1.42-2.12-1.59-3.36-1.77-3.53-.71-6-3.36-9.37-4.42-2.83-1.06-7.25-1.06-8.14,2.12C332.39,50.07,334.34,50.78,335.58,51.13Z" transform="translate(-258.79 -2)"/><path class="cls-4" d="M391.82,67.58c-1.15-.73-4.42-2.83-4.6-3-1.42-1.06-3.18-4.06-4.78-1.76a1.08,1.08,0,0,0-.17.7c1.23,3,3.53,4.95,5.83,7.25,1.06.89,2.15,1.74,3.19,2.66.86.77,1.41,1.59,2.3,2.3A16.62,16.62,0,0,0,397.3,78a3,3,0,0,0,3-1.24,1.68,1.68,0,0,0,.53-.89,3.13,3.13,0,0,0,0-.53C400,71.12,395.23,69.74,391.82,67.58Z" transform="translate(-258.79 -2)"/><path class="cls-4" d="M362.64,64c-2.66,1.07-4.25,3.36-5.49,5.84A101.65,101.65,0,0,0,352.91,80a2.06,2.06,0,0,0,.18,1.77,1.39,1.39,0,0,0,.7.71,3.76,3.76,0,0,0,4.25-.36A7.37,7.37,0,0,0,360,79.25c.18-.53.53-1.06.71-1.59.88-2.47,1.42-5,2.48-7.43.7-1.23,1.94-2.29,2.65-3.71.18-.35.53-.71.35-1.24C365.82,63.69,363.87,63.51,362.64,64Z" transform="translate(-258.79 -2)"/></svg>